<svg width="300" height="300" viewBox="0 0 300 300" fill="none" xmlns="http://www.w3.org/2000/svg">
<g clip-path="url(#clip0_1:2)">
<path d="M150.101 0C232.908 0 300 66.8905 300 149.899C300.201 232.707 232.707 300.201 149.899 300C67.092 299.799 0 232.707 0 149.899C0 67.092 67.092 0 150.101 0Z" fill="#0D2740"/>
<path d="M116.857 131.767C118.267 128.744 119.275 126.528 120.484 124.11C129.349 104.366 138.214 84.4193 147.079 64.6745C147.884 62.6597 149.093 61.6523 151.511 61.8538C155.944 62.0553 160.175 61.8538 164.607 61.8538C167.428 61.8538 167.629 62.2568 166.42 64.6745C154.13 91.6725 141.84 118.469 129.55 145.467C126.729 151.713 123.707 157.959 121.088 164.204C120.282 166.018 119.275 166.622 117.461 166.421C115.648 166.219 113.835 166.622 112.626 164.204C101.142 138.617 89.2545 113.231 77.7703 87.8444C74.1437 80.1883 70.7186 72.5321 67.2935 64.6745C66.0846 62.2568 66.4876 61.8538 69.1068 61.6523C73.7407 61.6523 78.3747 61.6523 83.0087 61.6523C85.0235 61.6523 86.0309 62.2568 86.8368 64.0701C96.3062 85.2252 105.776 106.38 115.245 127.535L116.857 131.767Z" fill="white"/>
<path d="M234.52 167.025C233.311 167.226 232.304 167.226 231.498 167.226C227.267 167.226 222.834 167.025 218.603 167.226C215.782 167.428 214.372 166.219 213.365 163.801C204.5 143.855 195.635 124.11 186.77 104.365C185.762 102.149 184.755 100.134 183.546 97.5151C182.74 98.9254 182.337 99.7314 181.934 100.537C172.263 122.095 162.592 143.452 152.921 165.01C152.116 166.823 151.108 167.428 149.295 167.428C144.056 167.428 138.818 167.428 132.975 167.428C133.378 166.219 133.58 165.212 133.781 164.406C148.892 131.363 164.003 98.321 179.114 65.2787C180.121 63.2639 181.33 62.6595 183.546 62.458C185.762 62.458 186.971 63.2639 187.979 65.2787C202.888 98.1195 217.999 130.759 232.908 163.6C233.512 164.809 233.915 165.816 234.52 167.025Z" fill="white"/>
<path d="M86.7674 239.057H78.5807L73.9025 209.351L71.7974 193.445H77.1772L82.5571 234.379L87.9369 193.445H93.3168L91.2116 209.351L86.7674 239.057Z" fill="white"/>
<path d="M97.761 193.445H107.585C113.199 193.445 116.006 196.486 116.006 202.567V209.585C116.006 212.391 114.602 214.497 111.561 216.134C114.602 217.771 116.006 219.876 116.006 222.683V229.701C116.006 235.782 113.199 238.823 107.585 238.823C107.585 238.823 107.351 238.823 107.117 238.823H97.761V193.445ZM103.141 198.825V213.795H105.948C106.883 213.795 107.819 213.795 108.053 213.561C109.69 212.859 110.392 211.69 110.392 209.819V202.801C110.392 200.228 109.222 198.825 106.649 198.825H103.141ZM103.141 218.941V233.911H106.883C109.222 233.911 110.626 232.507 110.626 229.934V222.917C110.626 221.046 109.924 219.876 108.287 219.175C107.819 218.941 107.117 218.941 106.182 218.941H103.141Z" fill="white"/>
<path d="M121.385 239.057V193.445H126.765V233.911H137.525V239.057H121.385Z" fill="white"/>
<path d="M159.044 230.636C159.044 236.718 156.004 239.758 149.922 239.758C143.841 239.758 140.8 236.718 140.8 230.636V201.866C140.8 195.784 143.841 192.743 149.922 192.743C156.004 192.743 159.044 195.784 159.044 201.866V230.636ZM153.665 201.866C153.665 199.293 152.495 197.889 149.922 197.889C147.583 197.889 146.18 199.293 146.18 201.866V230.636C146.18 233.209 147.349 234.612 149.922 234.612C152.495 234.612 153.665 233.209 153.665 230.636V201.866Z" fill="white"/>
<path d="M164.892 193.445H170.272V213.561H177.523V193.445H182.903V239.057H177.523V218.941H170.272V239.057H164.892V193.445Z" fill="white"/>
<path d="M189.218 193.445H205.358V198.591H194.598V213.561H203.954V218.941H194.598V233.911H205.358V239.057H189.218V193.445Z" fill="white"/>
<path d="M210.27 193.445H219.392C225.006 193.445 227.813 196.486 227.813 202.567V209.585C227.813 213.327 225.942 215.9 222.199 217.304L229.684 238.823H223.837L217.755 218.005L215.65 218.239V238.823H210.27V193.445ZM215.65 198.825V213.795H217.989C218.925 213.795 219.86 213.795 220.094 213.561C221.731 212.859 222.433 211.69 222.433 209.819V202.801C222.433 200.228 221.264 198.825 218.691 198.825H215.65Z" fill="white"/>
</g>
<defs>
<clipPath id="clip0_1:2">
<rect width="300" height="300" fill="white"/>
</clipPath>
</defs>
</svg>
